# xmcd
#
# Track frame offsets: 
#        150
#        12710
#        27467
#        36992
#        43875
#        62177
#        71994
#        90014
#        99799
#        105186
#        130561
#
# Disc length: 1948 seconds
#
# Revision: 0
# Processed by: cddbd v1.5.2PL0 Copyright (c) Steve Scherf et al.
# Submitted via: ExactAudioCopy v0.99pb5
#
DISCID=8a079a0b
DTITLE=Mississippi John Hurt  - The Complete Studio Recordings [CD2
DTITLE=Various Artist - The Immortal Mississippi John Hurt)
DYEAR=1900
DGENRE=
TTITLE0=Since I've Laid My Burden Down
TTITLE1=Moaning the Blues
TTITLE2=Stocktime (Buck Dance)
TTITLE3=Lazy Blues
TTITLE4=Richland Woman Blues
TTITLE5=Hop Joint
TTITLE6=Monday Morning Blues
TTITLE7=Keep on Knocking
TTITLE8=The Chicken
TTITLE9=Stagolee
TTITLE10=Nearer My God to Thee
EXTD=
EXTT0=
EXTT1=
EXTT2=
EXTT3=
EXTT4=
EXTT5=
EXTT6=
EXTT7=
EXTT8=
EXTT9=
EXTT10=
PLAYORDER=
